Patient4_TMGait_0pt6_01_left_47_EMG.mot
version=1
nRows=37
nColumns=33
inDegrees=no
endheader
time	1LAddLong	2LGlutMax	3LGlutMed	4LIliopsoas	5LSemiMemb	6LBicFemLong	7LRecFem	8LVastMed	9LVastLat	10LGasMed	11LTibAnt	12lTibPost	13LPeroneusLong	14LSol	15LExtDigLong	16LFlexDigLong	17RAddLong	18RGlutMax	19RGlutMed	20RIliopsoas	21RSemiMemb	22RBicFemLong	23RRecFem	24RVastMed	25RVastLat	26RGasMed	27RTibAnt	28RTibPost	29RPeroneusLong	30RSol	31RExtDigLong	32RFlexDigLong
58.06	0.010681	0.021515	0.2565	0.001221	-0.014038	0.053101	-0.10849	-0.008087	-0.016022	0.36057	-0.001068	-0.10666	-0.001373	-0.74173	-0.024261	-0.27374	0.036774	-0.30548	-0.28488	0.042267	-0.003357	-0.68176	-0.12894	0.36819	0.1297	0.003204	0.025024	-0.010681	-0.3009	-0.085449	-0.00351	0.000458
58.061	0.009155	-0.046387	0.26642	0.013123	-0.013428	0.023651	-0.092773	-0.002289	-0.031586	0.42358	0.000153	0.009918	0.094452	-0.93185	-0.055237	0.32013	0.043182	-0.25772	-0.10574	0.008392	0.066223	-0.55542	-0.094757	0.30868	0.1236	-0.001068	-0.000153	-0.011139	-0.26932	-0.052795	-0.003662	-0.000916
58.062	0.009766	0.030212	0.27649	-0.00061	0.017242	-0.031891	-0.078583	-0.008087	-0.024261	0.4805	-0.006561	0.092468	0.11719	-0.61813	-0.058899	-0.049744	0.052795	-0.10605	0.028076	0.005341	0.068817	-0.41657	-0.14374	0.18021	0.12924	0.002747	-0.070496	-0.00824	0.17654	-0.012054	-0.003052	-0.001526
58.063	0.013275	-0.026398	0.28351	-0.003357	0.032654	-0.03067	-0.071564	0.001068	-0.036621	0.18509	-0.00351	0.3009	0.07782	0.076752	-0.00885	-0.14282	0.074005	-0.001068	0.17929	-0.048676	-0.015564	-0.42389	-0.10895	0.19028	0.073242	0.002747	-0.19165	-0.009918	0.2243	-0.00824	-0.001373	0.000153
58.064	0.010681	-0.042114	0.29999	0.015106	0.024261	-0.070038	-0.061035	0.000305	-0.024414	-0.53833	0.002899	-0.06073	0.00824	0.28656	0.002747	0.26169	0.079956	0.03006	-0.048981	-0.00351	-0.011749	-0.41061	-0.049896	0.20905	0.15121	0.002441	-0.12314	-0.004883	0.005341	-0.048065	0.00061	-0.00885
58.065	0.013733	-0.012512	0.31174	0.001068	0.005188	-0.088654	-0.050964	-0.013428	-0.042877	-0.89447	0.00412	-0.03006	-0.023346	0.28748	0.016174	-0.071106	0.085602	0.047455	-0.1532	0.059662	-0.033264	-0.38437	-0.089111	0.017548	0.15289	0.002136	0.07309	-0.002441	-0.35614	-0.081482	0.001068	-0.007324
58.066	0.005646	0.017548	0.28366	-0.008392	-0.007629	-0.037079	-0.036011	0.001221	-0.032654	-0.49133	0.000458	-0.041351	-0.02121	-0.11139	-0.00946	-0.099945	0.12848	0.067444	-0.34317	0.030823	-0.090942	-0.41	-0.06546	-0.15671	0.077667	0.001984	0.077515	-0.002289	-0.01236	-0.056152	-0.001221	-0.011902
58.067	0.012512	0.014801	0.31601	-0.002594	-0.029449	0.035095	-0.043335	-0.006714	-0.029907	-0.27344	0.003052	-0.045319	-0.015869	-0.54932	-0.002899	0.018463	0.10696	0.029907	-0.30716	-0.036163	-0.18555	-0.34943	-0.06546	-0.2475	-0.074921	-0.005493	0.20752	0.00351	0.24643	-0.021515	-0.005341	-0.004883
58.068	0.00885	0.00412	0.32394	-0.002899	-0.044556	0.061188	-0.021973	-0.007172	-0.038452	-0.21515	-0.002747	-0.031433	-0.025482	-0.13351	-0.027618	-0.15671	0.041199	0.1181	-0.38635	0.025024	-0.032501	-0.23071	-0.12192	-0.3421	-0.27802	-0.003662	0.34592	-0.001068	0.25162	0.03479	0.002136	-0.00946
58.069	0.008392	0.001678	0.34912	0.000763	-0.056915	0.038757	-0.001678	-0.000458	-0.039673	-0.31006	0.005035	-0.024719	-0.018158	0.23636	-0.019684	0.000153	-0.010376	0.16632	-0.45075	0.042725	0.35553	-0.31433	-0.11795	-0.33325	-0.31891	-0.003967	0.070343	-0.000153	0.18692	0.037384	-0.003357	-0.006409
58.07	0.012207	-0.045319	0.36606	0.010681	-0.007629	-0.011902	-0.022278	0.005188	-0.035553	-0.32455	0.011444	-0.009155	-0.003204	0.3186	0.007782	0.095978	0.054016	0.16953	-0.14206	0.044556	0.25207	-0.45898	-0.044556	-0.43762	-0.20828	-0.003662	-0.31265	-0.001678	0.27008	0.079651	-0.003357	-0.000153
58.071	0.011292	-0.053406	0.38132	0.002136	0.015869	-0.037537	0.005493	-0.012054	-0.030365	-0.22247	0.004272	-0.005341	-0.010986	0.29068	0.019073	0.021057	0.049286	0.11978	0.096741	0.028229	0.025635	-0.56503	-0.084686	-0.50842	-0.13611	0.001984	-0.2211	-0.001526	0.41046	0.058746	-0.00473	-0.010376
58.072	0.008698	-0.053864	0.36667	0.010529	0.021362	-0.010681	-0.015869	0.005493	-0.03067	-0.11643	0.001984	-0.013733	0.006256	0.26199	0.022736	-0.018616	0.034637	0.13626	-0.067444	0.020142	-0.10864	-0.53863	-0.064087	-0.45181	-0.1062	0.001221	-0.10712	-0.001221	0.159	0.045929	-0.001221	-0.005951
58.073	-0.001984	-0.066833	0.39307	0.009003	0.017242	0.030212	-0.001984	0.001526	-0.032806	-0.075226	-0.000153	0.002594	0.001221	0.3038	0.022583	-0.016327	-0.032043	0.3154	0.18005	0.035858	0.012512	-0.37933	-0.16205	-0.34058	-0.065918	0.000305	-0.083618	-0.001068	-0.15884	0.015411	-0.00412	0.001984
58.074	0.014038	-0.080261	0.41946	-0.010529	0.010223	0.048218	0.018463	-0.007324	-0.032654	-0.058441	0.008392	-0.00412	-0.002441	0.28122	0.00885	-0.016937	-0.088501	0.39414	0.35034	-0.021973	-0.048676	-0.11856	-0.37109	-0.11566	-0.011292	0	-0.060577	-0.001526	-0.19898	0.020905	-0.00351	-0.006561
58.075	0.006104	-0.051575	0.40451	-0.009613	-0.010529	0.056152	0.000153	0.005035	-0.026245	-0.034943	0.006714	-0.000458	0.011139	0.26657	0.005341	-0.016479	-0.099792	0.34424	0.3183	-0.28061	0.3157	0.022888	-0.34592	0.12482	0.009003	0.001221	0.056152	0.005951	-0.16098	-0.011749	-0.001221	-0.000916
58.076	0.013885	-0.035248	0.41718	0.007324	-0.029144	0.025482	-0.022736	-0.002899	-0.021973	-0.017395	0.008087	0.002747	0.007019	0.23193	0.022736	-0.032654	-0.031738	0.2594	0.34836	-0.34042	0.36057	0.000916	-0.23651	0.14801	0.063782	-0.007019	0.22919	0.001221	-0.079651	-0.021057	-0.003204	-0.00061
58.077	0.00946	-0.059357	0.43198	0.007629	-0.013885	-0.012054	-0.015106	-0.001984	-0.021515	0.049744	0.005035	0.005188	0.006561	0.20905	0.010834	-0.022583	0.024719	0.33936	0.26123	-0.17746	0.02243	0.11108	-0.15457	0.16159	0.061188	-0.002441	0.30701	0.001068	-0.11002	-0.011597	-0.001984	0.006714
58.078	0.006714	-0.043488	0.43411	0.010376	0.017242	-0.043793	-0.013275	-0.004425	-0.014343	0.08316	-0.000458	0.005035	0.007172	0.1738	0.010529	0.025177	0.01297	0.33646	-0.40359	0.092316	0.020905	0.19608	0.067139	0.12924	-0.017853	0.001526	0.3064	-0.001373	-0.14557	0.00061	-0.005493	-0.010071
58.079	0.013885	-0.011444	0.45151	0.010681	0.034637	-0.04776	-0.027924	-0.00473	-0.014038	0.098724	0.003052	0.00412	0.018768	0.16327	0.00412	0.024719	-0.020905	0.25284	-0.60288	0.29968	-0.024261	0.41275	0.25085	0.030518	-0.050049	0	0.37888	0.010223	-0.089417	-0.049286	-0.007019	-0.010223
58.08	0.010376	0.005035	0.4454	-0.000153	0.024719	0.006714	-0.007324	-0.008545	-0.007019	0.11231	-0.003204	0.006561	0.001831	0.14771	0.009918	-0.001984	-0.014954	0.34134	-0.47913	0.34378	0.089111	0.45349	0.3479	-0.10956	-0.036163	0.004272	-0.13245	0.001068	0.23743	-0.066986	-0.009613	-0.005493
58.081	-0.02533	0.0177	0.44662	0.003967	0.000458	0.005188	-0.015259	-0.011902	-0.010071	0.10773	0.019836	0.012512	0.020447	0.16403	0.013275	-0.067596	-0.068512	0.11734	0.14236	0.23789	0.35065	0.49957	0.28961	-0.16708	-0.003815	0.001221	-0.8635	0.000916	0.23514	-0.065765	-0.01297	-0.006409
58.082	-0.042877	0.004272	0.45944	-0.001373	-0.018921	-0.004425	-0.016022	0	-0.001221	0.090637	-0.011597	0.003052	0.023499	0.1004	0.014343	-0.000458	-0.12741	-0.19775	0.30426	0.12497	0.39383	0.39322	0.093842	-0.20309	0.048523	-0.005188	-0.59677	-0.000153	0.048523	-0.01709	-0.003052	-0.002747
58.083	-0.001068	-0.000305	0.46402	-0.006256	-0.028534	-0.059814	-0.006104	-0.007782	0.005341	-0.017242	-0.001373	0.006256	0.017548	0.071411	0.011292	0.016632	-0.10742	-0.3952	-0.30624	0.084534	0.19104	0.15335	-0.33661	-0.28366	0.41473	-0.011902	-0.16296	0.000916	-0.18463	0.007172	0.002289	-0.021057
58.084	-0.06424	0.023499	0.46432	0.007019	-0.026398	-0.12299	0.002594	-0.015717	0.013275	-0.16464	0.007324	0.013275	0.011749	0.055847	0.016632	0.074921	-0.032043	-0.4921	-0.634	-0.003967	0.26825	-0.17105	-0.32532	-0.24994	0.76492	-0.00946	0.17685	0.001831	-0.45822	-0.025635	-0.00473	-0.009155
58.085	-0.052032	0.062561	0.43884	0.009155	-0.003357	-0.19669	0.001984	-0.00412	0.016174	-0.13229	0.004272	0.00473	0.013428	0.055695	-0.00885	0.056152	-0.046997	-0.35187	-0.83344	0.025787	0.1152	-0.27527	-0.23102	0.33859	0.64789	-0.007477	0.07431	0.00351	-0.52231	-0.13519	-0.003357	-0.011597
58.086	0.009003	0.061188	0.44037	0.018158	0.018311	-0.2652	0.026703	-0.015869	0.016632	-0.15579	0.00412	0.011292	0.009155	0.058746	-0.003662	0.027924	-0.016479	-0.27908	-0.80185	0.048676	0.069885	0.00885	-0.095825	0.61859	0.26169	-0.002136	0.19165	0.003967	-0.18417	-0.2121	-0.00351	-0.001526
58.087	0.032349	-0.00351	0.42938	0.011444	0.019989	-0.16586	0.033264	-0.010681	0.005341	-0.14099	0.00351	0.012207	-0.004883	0.073547	0.00412	0.002441	0.052185	-0.31296	-0.92606	0.034485	0.013428	-0.1471	0.11765	0.3067	-0.19791	0.007782	0.1532	0.000305	0.12817	-0.224	-0.001678	0.001526
58.088	0.008087	0.025787	0.40955	0.012207	-0.016937	-0.025635	0.062408	-0.00061	-0.003815	0.060883	0.000763	0.017395	0.002899	0.07019	0.009918	-0.019073	0.16022	-0.18585	-0.59631	0.021515	0.10223	-0.41046	0.26016	0	-0.30563	0.002899	-0.11566	0.00351	-0.10178	-0.21286	-0.002441	-0.001678
58.089	0.009003	0.080261	0.40878	0.006256	-0.005035	-0.022888	0.059052	-0.014343	0.003204	0.37018	0.002441	0.007935	0.000763	0.071869	0.003815	-0.023651	0.22995	-0.10437	0.039673	-0.050812	-0.11398	-0.30716	0.13016	-0.24612	0.28397	0.011597	-0.17929	0.001373	0.33096	-0.16571	-0.00061	-0.012054
58.09	0.014954	0.068054	0.38773	0.007019	0.024567	-0.084534	0.064392	-0.003357	-0.001526	0.29953	-0.005951	-0.01297	-0.005035	0.01709	0.003052	-0.044556	0.21637	-0.10574	-0.25909	-0.048065	-0.60104	0.016632	-0.044708	-0.32105	1.1418	0.010376	-0.000916	0.000458	0.69321	-0.062103	-0.004578	-0.002136
58.091	0.008087	0.072632	0.38498	-0.003662	0.035553	-0.10361	0.074005	-0.009308	-0.019989	0.27435	-0.004578	-0.010071	0.014191	-0.065613	0.015411	-0.036774	0.099335	0.004425	-0.077972	-0.049744	-0.84839	0.24002	-0.026703	-0.392	1.171	0.004883	0.002136	-0.002136	0.15411	0.093689	-0.004883	0.005035
58.092	0.004883	0.094299	0.38681	0.000916	0.028839	-0.088348	0.092621	-0.005646	-0.045471	0.37933	-0.010681	0.00412	0.0177	-0.08667	0.028534	-0.036011	-0.022278	0.14343	0.58945	-0.079193	-0.32867	0.5751	0.042572	-0.40253	0.83405	0.005035	-0.42801	-0.000458	0.58121	0.12604	-0.004883	0.000763
58.093	0.007935	0.10727	0.37079	0.002747	0.012054	-0.023346	0.1001	0.006256	-0.046844	0.62057	-0.008698	-0.001678	-0.003967	-0.11597	0.042572	-0.043335	-0.025482	0.087433	0.48309	0.000305	0.037384	0.74814	0.028229	-0.50323	0.10742	0.00351	-0.56488	-0.001984	0.78873	0.11032	0.000916	-0.003204
58.094	0.003204	0.10101	0.3595	0.010681	-0.023651	0.037231	0.091248	-0.005188	-0.049133	0.48553	-0.007019	0.009308	0.02655	-0.13672	0.00473	-0.032043	0.002747	0.11398	0.088654	-0.016327	0.62149	0.63919	-0.006409	-0.2594	-0.47302	0.005341	-0.73044	-0.003052	0.27481	0.13596	-0.002441	-0.003815
58.095	-0.000916	0.1059	0.35446	0.014191	-0.026398	0.093536	0.087128	0.004425	-0.063324	-0.35248	0.002136	0.011902	0.04303	-0.14175	-0.012817	-0.028992	0.04303	0.21072	-0.12878	0.003662	0.49011	0.37231	-0.079498	0.22583	-0.4715	0.000305	-0.42404	-0.002441	-0.31265	0.11551	-0.001678	-0.01236
58.096	-0.005035	0.14618	0.34622	0.016174	-0.01709	0.13687	0.092468	0.010681	-0.056305	-0.43854	0.011902	0.011292	0.026703	-0.081329	-0.03479	-0.033875	0.088501	0.37537	-0.2742	0.013428	0.037994	0.26627	-0.22018	0.43381	-0.7544	0.002136	-0.13733	-0.001373	-0.25192	0.018463	-0.000458	-0.017242
